<svg xmlns="http://www.w3.org/2000/svg" version="1" viewBox="0 0 512 512">
  <path stroke="#000" stroke-miterlimit="10" stroke-width="8" d="M489 386c-11-14-24-26-36-37l-13-13c-5-5-8-9-8-12s1-7 6-14l21-28 18-25 2-2c12-16 24-34 31-54 2-6 4-15-1-23s-14-10-20-11l-8-1h-78c-14 0-23 6-28 19l-15 33c-10 22-24 47-43 68l-1 1-5 4c-2-1-4-9-4-13v-90l-1-2c-1-12-5-25-25-29l-2-1h-81c-15 0-23 7-30 15-1 2-6 8-4 15 3 7 10 9 13 9 9 2 13 7 15 17 2 18 3 38 1 62a50 50 0 0 1-5 17l-2-1a425 425 0 0 1-62-103c-5-13-15-21-29-21H25c-11 0-18 4-22 10s-4 15 0 24c31 70 60 120 92 164 23 31 46 52 72 67a187 187 0 0 0 108 24c23-1 32-10 33-32 0-12 1-21 6-29l4-4c1-1 3 0 5 2 5 2 8 6 11 9l9 11 20 21c16 16 34 23 53 22h72c9-1 16-6 20-13 5-9 5-20 0-30-6-10-13-19-19-26zm1 46c-1 2-2 2-3 2h-71v1h-1c-14 1-26-4-37-16a743 743 0 0 1-29-31c-3-4-8-9-14-13-10-6-17-6-22-5s-12 5-17 14c-7 12-8 26-9 38 0 8-1 10-2 10a173 173 0 0 1-108-18c-23-14-44-34-65-62a845 845 0 0 1-91-165h74c4 0 8 1 10 8 14 34 30 63 49 90 5 7 11 16 21 22 8 6 15 6 19 5 4-2 10-5 14-15 3-6 4-12 5-21 2-26 2-47-1-67-2-15-10-25-21-30l7-2h80c5 1 6 2 6 3l2 9v89c0 8 5 27 19 33 13 4 21-5 26-10l1-1c21-23 36-50 47-73 6-11 11-24 15-34 2-6 4-7 9-6h83l6 2-1 5c-6 18-17 33-28 49l-2 2-18 25-22 29c-14 20-13 34 5 52l14 13a402 402 0 0 1 50 58c2 4 1 8 0 10z"/>
</svg>
