<svg xmlns="http://www.w3.org/2000/svg">
  <path d="M31.2 14.8h-.8v15.5c0 1-.8 1.7-1.7 1.7H4.3c-1 0-1.7-.8-1.7-1.7V14.8h-.8C.8 14.8 0 14 0 13V9c0-1 .8-1.8 1.8-1.8h4.5a4.4 4.4 0 0 1-1.2-3V4A4 4 0 0 1 7.3.5c1.3-.7 2.9-.7 4.2 0l2 1.2c1.3.7 2.4 1.8 3 3a7.2 7.2 0 0 1 3-3l2-1.2c1.3-.7 3-.7 4.2 0A4 4 0 0 1 28 4.2c0 1.2-.5 2.2-1.2 3h4.5c1 0 1.8.8 1.8 1.7V13c0 1-.8 1.8-1.8 1.8zm-11.4 2.1h2.8c.4 0 .7.4.7.8s-.3.7-.7.7h-2.8v12.2h8.9l.3-.3V14.8h-9.2v2.1zM4 30.3l.3.3h8.9V18.4h-3a.7.7 0 0 1-.8-.7c0-.4.4-.8.8-.8h3v-2.1H4v15.5zM1.8 8.6c-.2 0-.3.2-.3.3V13c0 .2.1.3.3.3h11.4V8.6H1.8zm11-5.7l-2-1.1a2.8 2.8 0 0 0-2.8 0c-.8.5-1.4 1.3-1.4 2.2v.2a3 3 0 0 0 3 3h6.1A5.7 5.7 0 0 0 12.8 3zm1.9 5.7v22h3.6v-22h-3.6zM26.4 4c0-1-.6-1.7-1.4-2.2-.9-.5-1.9-.5-2.7 0l-2.1 1.1a5.7 5.7 0 0 0-3 4.3h6.1a3 3 0 0 0 3.1-3V4zm5.1 5c0-.2-.1-.4-.3-.4H19.8v4.7h11.4c.2 0 .3-.1.3-.3V9zM6.7 18.3a.7.7 0 0 1-.8-.7c0-.4.3-.8.7-.8h.1c.4 0 .7.4.7.8s-.3.7-.7.7zm19.5 0H26a.7.7 0 0 1-.8-.7c0-.4.4-.8.8-.8.5 0 .8.4.8.8s-.3.7-.7.7z"/>
</svg>
