
<svg xmlns="http://www.w3.org/2000/svg" xmlns:xlink="http://www.w3.org/1999/xlink" version="1.1">
  <symbol id="arrow" viewBox="0 0 96 96">
    <path d="M12,52h62.344L52.888,73.456c-1.562,1.562-1.562,4.095-0.001,5.656c1.562,1.562,4.096,1.562,5.658,0l28.283-28.284l0,0 c0.186-0.186,0.352-0.391,0.498-0.609c0.067-0.101,0.114-0.21,0.172-0.315c0.066-0.124,0.142-0.242,0.195-0.373 c0.057-0.135,0.089-0.275,0.129-0.415c0.033-0.111,0.076-0.217,0.099-0.331C87.973,48.525,88,48.263,88,48l0,0 c0-0.003-0.001-0.006-0.001-0.009c-0.001-0.259-0.027-0.519-0.078-0.774c-0.024-0.12-0.069-0.231-0.104-0.349 c-0.039-0.133-0.069-0.268-0.123-0.397c-0.058-0.139-0.136-0.265-0.208-0.396c-0.054-0.098-0.097-0.198-0.159-0.292 c-0.146-0.221-0.314-0.427-0.501-0.614L58.544,16.888c-1.562-1.562-4.095-1.562-5.657-0.001c-1.562,1.562-1.562,4.095,0,5.658 L74.343,44L12,44c-2.209,0-4,1.791-4,4C8,50.209,9.791,52,12,52z"/>
  </symbol>
  <symbol id="vk-icon" viewBox="0 0 512 512">
    <path stroke-miterlimit="10" stroke-width="10" d="M489 386c-11-14-24-26-36-37l-13-13c-5-5-8-9-8-12s1-7 6-14l21-28 18-25 2-2c12-16 24-34 31-54 2-6 4-15-1-23s-14-10-20-11l-8-1h-78c-14 0-23 6-28 19l-15 33c-10 22-24 47-43 68l-1 1-5 4c-2-1-4-9-4-13v-90l-1-2c-1-12-5-25-25-29l-2-1h-81c-15 0-23 7-30 15-1 2-6 8-4 15 3 7 10 9 13 9 9 2 13 7 15 17 2 18 3 38 1 62a50 50 0 0 1-5 17l-2-1a425 425 0 0 1-62-103c-5-13-15-21-29-21H25c-11 0-18 4-22 10s-4 15 0 24c31 70 60 120 92 164 23 31 46 52 72 67a187 187 0 0 0 108 24c23-1 32-10 33-32 0-12 1-21 6-29l4-4c1-1 3 0 5 2 5 2 8 6 11 9l9 11 20 21c16 16 34 23 53 22h72c9-1 16-6 20-13 5-9 5-20 0-30-6-10-13-19-19-26zm1 46c-1 2-2 2-3 2h-71v1h-1c-14 1-26-4-37-16a743 743 0 0 1-29-31c-3-4-8-9-14-13-10-6-17-6-22-5s-12 5-17 14c-7 12-8 26-9 38 0 8-1 10-2 10a173 173 0 0 1-108-18c-23-14-44-34-65-62a845 845 0 0 1-91-165h74c4 0 8 1 10 8 14 34 30 63 49 90 5 7 11 16 21 22 8 6 15 6 19 5 4-2 10-5 14-15 3-6 4-12 5-21 2-26 2-47-1-67-2-15-10-25-21-30l7-2h80c5 1 6 2 6 3l2 9v89c0 8 5 27 19 33 13 4 21-5 26-10l1-1c21-23 36-50 47-73 6-11 11-24 15-34 2-6 4-7 9-6h83l6 2-1 5c-6 18-17 33-28 49l-2 2-18 25-22 29c-14 20-13 34 5 52l14 13a402 402 0 0 1 50 58c2 4 1 8 0 10z"/>
  </symbol>
  <symbol id="inst-icon" viewBox="0 0 512 512">
    <g>
      <path stroke-miterlimit="10" d="M373.7 0H138.3C62.1 0 0 62.1 0 138.3v235.3C0 449.9 62.1 512 138.3 512h235.3c76.3 0 138.3-62.1 138.3-138.3V138.3C512 62.1 449.9 0 373.7 0zm96.9 373.7c0 53.5-43.5 97-97 97H138.3c-53.5 0-97-43.5-97-97V138.3c0-53.5 43.5-97 97-97h235.3c53.5 0 97 43.5 97 97v235.4z" class="st0"/>
      <path d="M370.6 238.1c-3.6-24.5-14.8-46.8-32.4-64.3-17.5-17.5-39.8-28.7-64.3-32.4-11.2-1.7-22.5-1.7-33.7 0-30.3 4.5-57.1 20.5-75.4 45.2s-25.9 54.9-21.4 85.2c4.5 30.3 20.5 57.1 45.2 75.4 20 14.8 43.7 22.6 68.2 22.6 5.7 0 11.4-.4 17.1-1.3 30.3-4.5 57.1-20.5 75.4-45.2 18.2-24.6 25.8-54.8 21.3-85.2zm-102.8 89.5c-19.4 2.9-38.8-2-54.5-13.7s-26-28.8-28.9-48.2c-2.9-19.4 2-38.8 13.7-54.5 11.7-15.8 28.8-26 48.2-28.9 3.6-.5 7.2-.8 10.8-.8 3.6 0 7.2.3 10.8.8 32.2 4.8 57.1 29.6 61.9 61.9 5.8 40.1-21.9 77.5-62 83.4zM400 112c-3.9-3.9-9.2-6.1-14.6-6.1s-10.8 2.2-14.6 6.1c-3.9 3.9-6.1 9.2-6.1 14.6 0 5.5 2.2 10.8 6.1 14.6 3.9 3.9 9.2 6.1 14.6 6.1s10.8-2.2 14.6-6.1c3.9-3.9 6.1-9.2 6.1-14.6 0-5.5-2.2-10.8-6.1-14.6z"/>
    </g>
  </symbol>
</svg>
